<svg xmlns="http://www.w3.org/2000/svg" viewBox="0 0 24 24" fill="white">
  <path d="M12 18c1.1 0 2 .9 2 2s-.9 2-2 2-2-.9-2-2 .9-2 2-2zm0-6c2.76 0 5 2.24 5 5 0 .55-.45 1-1 1s-1-.45-1-1c0-1.65-1.35-3-3-3s-3 1.35-3 3c0 .55-.45 1-1 1s-1-.45-1-1c0-2.76 2.24-5 5-5zm0-6c4.42 0 8 3.58 8 8 0 .55-.45 1-1 1s-1-.45-1-1c0-3.31-2.69-6-6-6s-6 2.69-6 6c0 .55-.45 1-1 1s-1-.45-1-1c0-4.42 3.58-8 8-8zM2.92 9.07C5.51 5.51 9.51 4 12 4c2.49 0 6.49 1.51 9.08 5.07.39.45.39 1.14 0 1.58-.39.45-1.04.45-1.43 0C17.21 6.69 14.21 6 12 6 9.79 6 6.79 6.69 4.35 10.65c-.39.45-1.04.45-1.43 0-.39-.44-.39-1.13 0-1.58z"/>
</svg>
